# xmcd CD database file
#
# Track frame offsets:
#	150
#	14155
#	42267
#	59144
#	86397
#	105807
#	122123
#	141420
#	156640
#	170021
#	185553
#	207418
#	228357
#	242932
#	259751
#	291868
#
# Disc length: 4064 seconds
#
# Revision: 0
# Processed by: cddbd v1.5.2PL0 Copyright (c) Steve Scherf et al.
# Submitted via: CDex 1.70beta2
#
DISCID=f50fde10
DTITLE=Makako Jump - Lasciate La Mancia Al Portapizze
DYEAR=2007
DGENRE=Salsa
TTITLE0=Il Versio dei topini
TTITLE1=Libera lamento
TTITLE2=Precario
TTITLE3=Attenti All'uomo bianco
TTITLE4=Scalatore d'aria
TTITLE5=Agosto
TTITLE6=Eleanor Rigby
TTITLE7=La volpe e il cervo
TTITLE8=Senza illusioni
TTITLE9=A modo mio
TTITLE10=Muvin
TTITLE11=DIscarica
TTITLE12=Shaghai
TTITLE13=Sabbia
TTITLE14=Attenti all uomo bianco
TTITLE15=Data Bonus Track
EXTD=YEAR: 2007
EXTT0=
EXTT1=
EXTT2=
EXTT3=
EXTT4=
EXTT5=
EXTT6=
EXTT7=
EXTT8=
EXTT9=
EXTT10=
EXTT11=
EXTT12=
EXTT13=
EXTT14=
EXTT15=
PLAYORDER=
